<?xml version="1.0" encoding="UTF-8"?>
<svg id="Layer_1" xmlns="http://www.w3.org/2000/svg" version="1.1" viewBox="0 0 482.259 330.728">
  <!-- Generator: Adobe Illustrator 29.5.1, SVG Export Plug-In . SVG Version: 2.1.0 Build 141)  -->
  <defs>
    <style>
      .st0 {
        fill: #1a1a1a;
      }
    </style>
  </defs>
  <g>
    <path class="st0" d="M155.561,167.276l9.35-11.11c7.15,6.16,15.29,9.9,24.86,9.9,8.14,0,12.32-3.74,12.32-8.471,0-5.39-4.4-7.04-15.95-9.68-15.95-3.63-27.28-8.14-27.28-22.77,0-13.97,11.44-23.541,27.94-23.541,12.32,0,21.89,3.85,29.59,10.45l-8.47,11.66c-6.71-5.39-14.3-8.36-21.56-8.36-6.93,0-11.11,3.63-11.11,8.14,0,5.5,4.51,7.26,16.17,9.9,16.28,3.63,27.06,8.47,27.06,22.44,0,14.41-10.89,23.98-29.37,23.98-13.09,0-24.75-4.4-33.55-12.54Z"/>
    <path class="st0" d="M225.631,105.015c0-4.51,3.85-8.58,8.8-8.58,4.73,0,8.58,4.07,8.58,8.58,0,4.84-3.85,8.8-8.58,8.8-4.95,0-8.8-3.96-8.8-8.8ZM226.291,121.626h16.06v56.87h-16.06v-56.87Z"/>
    <path class="st0" d="M247.41,121.626h16.83l15.29,38.39,14.96-38.39h16.72l-24.31,56.87h-14.85l-24.64-56.87Z"/>
    <path class="st0" d="M363.019,144.505v33.99h-15.51v-5.72c-4.07,4.62-10.56,7.04-16.72,7.04-12.1,0-21.45-7.261-21.45-18.15,0-11.22,10.45-18.92,23.65-18.92,4.62,0,9.68.99,14.52,2.86v-1.1c0-6.05-3.74-11.33-13.09-11.33-5.28,0-10.23,1.76-14.74,4.07l-5.39-10.67c8.03-4.07,15.84-6.27,23.76-6.27,14.85,0,24.97,9.35,24.97,24.2ZM347.509,160.566v-5.28c-3.63-1.32-7.81-2.09-12.21-2.09-5.83,0-10.45,3.41-10.45,8.029s4.07,7.48,9.57,7.48c6.16,0,11.99-2.86,13.09-8.14Z"/>
    <path class="st0" d="M408.778,120.305v13.53c-11.88,0-19.47,6.82-19.47,17.49v27.17h-16.061v-56.87h16.061v10.56c3.739-7.37,10.779-11.88,19.47-11.88Z"/>
    <path class="st0" d="M465.098,144.505v33.99h-15.51v-5.72c-4.07,4.62-10.56,7.04-16.72,7.04-12.101,0-21.45-7.261-21.45-18.15,0-11.22,10.45-18.92,23.65-18.92,4.619,0,9.68.99,14.52,2.86v-1.1c0-6.05-3.74-11.33-13.09-11.33-5.28,0-10.23,1.76-14.74,4.07l-5.39-10.67c8.029-4.07,15.84-6.27,23.76-6.27,14.85,0,24.97,9.35,24.97,24.2ZM449.588,160.566v-5.28c-3.63-1.32-7.81-2.09-12.21-2.09-5.83,0-10.45,3.41-10.45,8.029s4.07,7.48,9.57,7.48c6.16,0,11.99-2.86,13.09-8.14Z"/>
    <path class="st0" d="M227.282,192.925v75.57h-16.17v-31.24h-34.43v31.24h-16.17v-75.57h16.17v29.7h34.43v-29.7h16.17Z"/>
    <path class="st0" d="M278.431,250.566l10.23,10.449c-5.06,5.28-14.85,8.801-23.21,8.801-16.94,0-30.14-12.431-30.14-29.921,0-17.16,12.65-29.59,29.26-29.59,17.82,0,28.27,13.53,28.27,34.98h-41.03c1.87,6.16,6.82,10.34,13.53,10.34,4.51,0,10.01-2.09,13.09-5.06ZM252.031,233.736h25.41c-1.54-5.61-5.72-9.24-12.21-9.24-6.05,0-11.11,3.52-13.2,9.24Z"/>
    <path class="st0" d="M350.81,234.505v33.99h-15.51v-5.72c-4.07,4.62-10.56,7.04-16.72,7.04-12.1,0-21.45-7.261-21.45-18.15,0-11.22,10.45-18.92,23.65-18.92,4.62,0,9.68.99,14.52,2.859v-1.1c0-6.05-3.74-11.33-13.09-11.33-5.28,0-10.23,1.76-14.74,4.07l-5.39-10.67c8.03-4.07,15.84-6.271,23.76-6.271,14.85,0,24.97,9.351,24.97,24.2ZM335.3,250.566v-5.28c-3.63-1.32-7.81-2.09-12.21-2.09-5.83,0-10.45,3.41-10.45,8.029s4.07,7.48,9.57,7.48c6.16,0,11.99-2.86,13.09-8.14Z"/>
    <path class="st0" d="M361.039,191.605h16.061v76.891h-16.061v-76.891Z"/>
    <path class="st0" d="M421.539,264.866c-3.301,2.97-8.471,4.95-13.091,4.95-10.01,0-17.05-7.15-17.05-17.381v-27.83h-7.81v-12.979h7.81v-15.62h15.4v15.62h12.32v12.979h-12.32v25.301c0,3.74,2.42,6.38,5.39,6.38,2.2,0,4.4-.771,5.5-1.87l3.851,10.45Z"/>
    <path class="st0" d="M482.259,232.305v36.19h-15.511v-32.78c0-7.04-4.399-11.88-10.78-11.88-6.71,0-11.88,4.84-11.88,11v33.66h-16.06v-76.891h16.06v26.95c3.521-4.95,9.79-8.25,17.051-8.25,12.319,0,21.12,9.13,21.12,22Z"/>
  </g>
  <g>
    <path class="st0" d="M101.692,160.116l12.002-6.316,10.999-72.195c10.195-5.162,20.417-10.557,30.677-16.364,12.015-7.065,19.46-17.076,16.753-22.222s-15.174-4.676-27.801,1.225c-10.596,5.168-20.832,10.538-30.86,16.017L47.731,28.441l-12.002,6.316,49.586,41.401c-15.875,9.201-31.525,18.472-47.386,27.563l-17.378-11.403-7.926,4.17,16.714,21.666,8.39,26.043,7.926-4.17.445-20.777c16.475-7.926,32.977-15.576,49.553-23.446l6.041,64.312Z"/>
    <path class="st0" d="M94.104,312.806c3.136-8.119-3.383-16.011-10.413-19.417-10.187-5.164-24.485-8.643-27.88-21.687-1.719-6.624.281-13.574,3.86-19.124,5.028-7.963,14.075-12.886,21.969-16.676,8.53-4.207,16.851-7.472,22.606-14.788,4.279-5.673,5.477-14.686-.805-18.735-3.938-2.687-9.164-3.698-14.11-4.858,0,0-8.32-1.905-8.32-1.905-8.294-1.886-24.992-5.723-33.285-7.612-17.692-3.759-38.329-10.345-46.016-28.789-4.624-15.994.199-27.021,13.638-36.424,5.022-3.423,10.242,3.671,5.508,7.443-4.169,3.128-8.311,6.824-10.155,11.531-1.752,4.691-.893,9.844.477,14.77,0,0-.241-.666-.241-.666,1.949,4.263,5.241,8.026,9.291,11.009,8.535,6.352,19.25,8.767,29.754,11.102,0,0,16.669,3.664,16.669,3.664,5.517,1.215,19.673,4.323,25.009,5.495,6.064,1.354,12.335,2.571,17.911,6.341,10.006,6.489,11.478,19.817,6.115,29.832-3.02,5.931-8.441,10.63-14.02,13.906-14.055,8.701-36.644,10.548-39.431,29.652-.816,13.059,14.481,17.238,23.358,23.391,7.289,4.524,13.864,14.416,9.18,22.883-.105.179-.335.238-.514.133-.165-.097-.228-.302-.154-.473h0Z"/>
    <g>
      <path class="st0" d="M90.858,44.079l.619-35.046C91.575,4.024,87.456-.097,82.445.002c-4.902.087-8.805,4.13-8.718,9.032,0,0,.181,10.227.477,27.012l16.654,8.034Z"/>
      <path class="st0" d="M78.022,252.262c.768,43.499,1.33,75.301,1.33,75.301.287,4.427,6.372,4.008,6.5,0l1.407-79.695-9.237,4.394Z"/>
      <path class="st0" d="M87.592,229.055l2.213-125.313-14.285,6.796c.698,39.505,1.492,84.491,2.176,123.225l9.896-4.708Z"/>
    </g>
  </g>
</svg>