<?xml version="1.0" encoding="UTF-8"?>
<svg xmlns="http://www.w3.org/2000/svg" xmlns:xlink="http://www.w3.org/1999/xlink" width="5000" height="4500" viewBox="0 0 5000 4500">
<defs>
</defs>
<path fill-rule="nonzero" fill="#7C9ED9" fill-opacity="1" d="M 2435.449219 1793.671875 L 2022.839844 1329.210938 L 1610.210938 1793.671875 Z M 2435.449219 1793.671875 "/>
<path fill-rule="nonzero" fill="#7C9ED9" fill-opacity="1" d="M 1616.851562 1869.101562 L 2020.101562 2919.589844 L 2025.550781 2919.589844 L 2428.789062 1869.101562 L 1616.851562 1869.101562 "/>
<path fill-rule="nonzero" fill="#7C9ED9" fill-opacity="1" d="M 1509.320312 1793.671875 L 1518.949219 1782.828125 L 1398.261719 1272.429688 L 1388.058594 1272.429688 L 828.808594 1793.671875 L 1509.320312 1793.671875 "/>
<path fill-rule="nonzero" fill="#7C9ED9" fill-opacity="1" d="M 2073.269531 1272.429688 L 2465.511719 1713.929688 L 2569.910156 1272.429688 Z M 2073.269531 1272.429688 "/>
<path fill-rule="nonzero" fill="#7C9ED9" fill-opacity="1" d="M 1580.171875 1713.929688 L 1972.390625 1272.429688 L 1475.78125 1272.429688 Z M 1580.171875 1713.929688 "/>
<path fill-rule="nonzero" fill="#7C9ED9" fill-opacity="1" d="M 2647.398438 1272.429688 L 2526.710938 1782.828125 L 2536.339844 1793.671875 L 3143.480469 1793.671875 L 2655.058594 1272.429688 L 2647.398438 1272.429688 "/>
<path fill-rule="nonzero" fill="#7C9ED9" fill-opacity="1" d="M 1539.351562 1869.101562 L 820.5625 1869.101562 L 1919.949219 2860.589844 Z M 1539.351562 1869.101562 "/>
<path fill-rule="nonzero" fill="#7C9ED9" fill-opacity="1" d="M 2506.320312 1869.101562 L 2129.628906 2850.390625 L 3148.910156 1869.101562 Z M 2506.320312 1869.101562 "/>
<path fill-rule="nonzero" fill="#7C9ED9" fill-opacity="1" d="M 2064.410156 985.71875 L 1981.269531 985.71875 L 1945.640625 383.890625 L 2100.050781 383.890625 L 2064.410156 985.71875 "/>
<path fill-rule="nonzero" fill="#7C9ED9" fill-opacity="1" d="M 2315.871094 1043.640625 L 2242.859375 1003.859375 L 2499.460938 458.300781 L 2635.078125 532.179688 L 2315.871094 1043.640625 "/>
<path fill-rule="nonzero" fill="#7C9ED9" fill-opacity="1" d="M 2538.238281 1178.539062 L 2488.851562 1111.628906 L 2951.871094 725.5 L 3043.578125 849.738281 L 2538.238281 1178.539062 "/>
<path fill-rule="nonzero" fill="#7C9ED9" fill-opacity="1" d="M 1507.449219 1178.539062 L 1556.828125 1111.628906 L 1093.820312 725.5 L 1002.109375 849.738281 L 1507.449219 1178.539062 "/>
<path fill-rule="nonzero" fill="#7C9ED9" fill-opacity="1" d="M 1729.808594 1043.640625 L 1802.828125 1003.859375 L 1546.230469 458.300781 L 1410.609375 532.179688 L 1729.808594 1043.640625 "/>
<path fill-rule="nonzero" fill="#7C9ED9" fill-opacity="1" d="M 3786.800781 3979.941406 C 3758.03125 3979.941406 3734.699219 3956.609375 3734.699219 3927.828125 C 3734.699219 3899.050781 3758.03125 3875.730469 3786.800781 3875.730469 C 3815.578125 3875.730469 3838.910156 3899.050781 3838.910156 3927.828125 C 3838.910156 3956.609375 3815.578125 3979.941406 3786.800781 3979.941406 Z M 3916.828125 3236.21875 L 3593.058594 4005.601562 L 3855.671875 4116.109375 L 4179.441406 3346.730469 L 3916.828125 3236.21875 "/>
<path fill-rule="nonzero" fill="#7C9ED9" fill-opacity="1" d="M 3707.03125 3150.800781 C 3548.46875 2985.769531 3205.460938 2833.691406 2804.210938 2992.25 C 2402.960938 3150.800781 2202.328125 3218.761719 1988.761719 3241.410156 C 1775.191406 3264.058594 1716.949219 3319.070312 1716.949219 3387.03125 C 1716.949219 3454.980469 1799.359375 3563.421875 2008.179688 3522.941406 C 2325.300781 3461.449219 2587.410156 3412.910156 2710.371094 3454.980469 C 2833.328125 3497.050781 2813.921875 3565 2742.730469 3539.109375 C 2671.539062 3513.230469 2525.921875 3493.808594 2241.171875 3552.058594 C 1956.398438 3610.300781 1828.398438 3651 1708.671875 3524.800781 C 1588.941406 3398.601562 1697.238281 3269.488281 1697.238281 3269.488281 C 1697.238281 3269.488281 1477.488281 3134.628906 1364.230469 2998.71875 C 1250.980469 2862.808594 1069.769531 2785.148438 1021.230469 2875.75 C 1021.230469 2875.75 956.734375 2850.25 911.140625 2893.671875 C 865.546875 2937.089844 872.273438 2998.890625 904.734375 3050.488281 C 985.632812 3166.988281 1148.53125 3381.871094 1192.730469 3454.980469 C 1256.339844 3560.191406 1348.050781 3590.890625 1445.128906 3645.898438 C 1542.210938 3700.910156 1878.738281 3865.941406 1982.289062 3927.421875 C 2085.839844 3988.898438 2176.449219 4060.101562 2522.691406 3969.488281 C 2868.929688 3878.878906 3166.628906 3746.210938 3360.789062 3830.351562 C 3422.621094 3857.140625 3501.839844 3891.480469 3581.109375 3925.851562 L 3858.871094 3265.820312 C 3802.21875 3232.460938 3748.519531 3193.988281 3707.03125 3150.800781 "/>
</svg>