<svg xmlns="http://www.w3.org/2000/svg" xmlns:xlink="http://www.w3.org/1999/xlink" width="2048" zoomAndPan="magnify" viewBox="0 0 1536 1535.249993" height="2047" preserveAspectRatio="xMidYMid meet" version="1.2"><defs><clipPath id="06fb76ae3b"><path d="M 0.375 0 L 1535.625 0 L 1535.625 1534.5 L 0.375 1534.5 Z M 0.375 0 "/></clipPath><clipPath id="d0586bdff2"><path d="M 0.375 0 L 1535.625 0 L 1535.625 1534.324219 L 0.375 1534.324219 Z M 0.375 0 "/></clipPath></defs><g id="2215ccefea"><g clip-rule="nonzero" clip-path="url(#06fb76ae3b)"><path style=" stroke:none;fill-rule:nonzero;fill:#ffffff;fill-opacity:1;" d="M 0.375 0 L 1535.625 0 L 1535.625 1534.5 L 0.375 1534.5 Z M 0.375 0 "/><path style=" stroke:none;fill-rule:nonzero;fill:#ffffff;fill-opacity:1;" d="M 0.375 0 L 1535.625 0 L 1535.625 1534.5 L 0.375 1534.5 Z M 0.375 0 "/></g><g clip-rule="nonzero" clip-path="url(#d0586bdff2)"><path style=" stroke:none;fill-rule:nonzero;fill:#ffffff;fill-opacity:1;" d="M 0.675781 -0.109375 L 1535.070312 -0.109375 L 1535.070312 1534.28125 C 1023.605469 1534.28125 512.140625 1534.28125 0.675781 1534.28125 C 0.675781 1022.820312 0.675781 511.355469 0.675781 -0.109375 "/></g><path style=" stroke:none;fill-rule:nonzero;fill:#000000;fill-opacity:1;" d="M 1182.785156 755.667969 L 1182.785156 755.671875 L 1182.785156 755.667969 L 1182.78125 755.667969 L 1182.78125 755.671875 L 1182.78125 755.667969 Z M 1182.785156 755.667969 "/><path style=" stroke:none;fill-rule:nonzero;fill:#7c9ed9;fill-opacity:1;" d="M 1227.9375 594.417969 C 1226.6875 594.417969 1225.429688 594.441406 1224.167969 594.488281 C 1169.609375 596.539062 1127.039062 642.429688 1129.085938 696.992188 C 1129.308594 702.914062 1130.046875 708.691406 1131.257812 714.285156 C 1131.5 715.410156 1131.761719 716.519531 1132.039062 717.621094 L 1149.890625 707.191406 L 1149.894531 707.191406 L 1149.894531 707.1875 C 1149.695312 706.035156 1149.515625 704.878906 1149.363281 703.707031 L 1149.359375 703.714844 L 1149.363281 703.707031 L 1149.359375 703.707031 L 1149.363281 703.707031 C 1149.039062 701.261719 1148.828125 698.773438 1148.734375 696.257812 C 1147.09375 652.542969 1181.195312 615.777344 1224.910156 614.132812 C 1225.921875 614.097656 1226.933594 614.078125 1227.9375 614.078125 C 1228.617188 614.078125 1229.292969 614.085938 1229.96875 614.105469 C 1271.425781 615.15625 1305.457031 648.292969 1307.035156 690.308594 C 1308.675781 734.023438 1274.570312 770.789062 1230.855469 772.433594 C 1229.84375 772.46875 1228.835938 772.488281 1227.832031 772.488281 C 1227.152344 772.488281 1226.46875 772.480469 1225.792969 772.464844 C 1209.34375 772.046875 1194.0625 766.574219 1181.515625 757.5 L 1181.511719 757.5 L 1181.515625 757.5 L 1181.507812 757.503906 L 1164.585938 769.230469 C 1181.167969 783.058594 1202.308594 791.53125 1225.277344 792.117188 C 1226.117188 792.136719 1226.96875 792.152344 1227.816406 792.152344 C 1229.070312 792.152344 1230.332031 792.125 1231.59375 792.078125 C 1286.160156 790.027344 1328.730469 744.132812 1326.679688 689.570312 C 1324.710938 637.128906 1282.234375 595.765625 1230.492188 594.449219 L 1230.492188 594.453125 C 1229.640625 594.425781 1228.789062 594.417969 1227.9375 594.417969 Z M 702.367188 95.472656 C 687.734375 95.472656 675.566406 107.003906 674.910156 121.765625 C 674.238281 136.945312 685.996094 149.789062 701.175781 150.460938 L 732.820312 151.867188 C 733.238281 151.882812 733.652344 151.890625 734.0625 151.890625 C 740.6875 151.890625 746.8125 149.523438 751.589844 145.566406 L 751.589844 145.570312 C 767.101562 147.144531 777.699219 152.761719 786.902344 173.777344 C 802.894531 210.285156 811.449219 287.941406 810.992188 369.339844 C 810.542969 449.9375 801.304688 528.351562 782.808594 579.070312 C 766.421875 624.03125 742.539062 647.929688 715.597656 672.179688 L 715.597656 672.183594 C 711.277344 670.390625 706.617188 669.453125 701.898438 669.453125 C 696.535156 669.453125 691.089844 670.664062 685.972656 673.222656 L 553.996094 739.214844 L 422.015625 673.222656 C 416.894531 670.664062 411.449219 669.449219 406.089844 669.449219 C 401.253906 669.449219 396.480469 670.4375 392.074219 672.316406 C 365.296875 648.183594 341.5625 624.292969 325.25 579.546875 C 306.753906 528.8125 297.511719 450.398438 297.0625 369.796875 C 296.609375 288.398438 305.160156 210.730469 321.15625 174.214844 C 329.769531 154.558594 339.601562 148.355469 353.519531 146.34375 C 358.328125 150.398438 364.527344 152.828125 371.234375 152.828125 C 371.710938 152.828125 372.1875 152.8125 372.671875 152.785156 L 404.3125 151.160156 C 419.476562 150.378906 431.148438 137.449219 430.367188 122.277344 C 429.609375 107.585938 417.460938 96.179688 402.917969 96.179688 C 402.445312 96.179688 401.964844 96.195312 401.484375 96.222656 L 369.84375 97.847656 C 363.339844 98.179688 357.480469 100.746094 352.96875 104.769531 C 328.34375 107.230469 300.988281 117.039062 283.222656 157.597656 C 263.367188 202.917969 255.191406 288.542969 255.648438 370.023438 C 256.105469 452.296875 265.414062 536.335938 286.339844 593.730469 C 307.59375 652.023438 340.484375 681.808594 370.5625 708.644531 L 370.558594 708.644531 C 371.738281 720.421875 378.742188 731.355469 390.109375 737.039062 L 518.324219 801.144531 L 518.324219 927.023438 C 518.324219 939.046875 524.265625 949.671875 533.371094 956.136719 L 533.371094 1148.921875 C 532.949219 1254.636719 530.75 1377.316406 623.78125 1442.414062 C 665.179688 1471.378906 723.808594 1487.78125 781.355469 1487.78125 C 850.722656 1487.78125 924.253906 1463.707031 964.089844 1401.304688 C 1007.429688 1333.402344 1006.402344 1223.660156 1006.175781 1126.679688 C 1006.035156 1065.597656 1005.972656 1008.082031 1014.308594 961.382812 C 1032.679688 858.449219 1092.535156 806.648438 1163.320312 759.195312 C 1163.324219 759.195312 1163.324219 759.195312 1163.324219 759.195312 C 1167.699219 756.261719 1172.117188 753.34375 1176.566406 750.433594 L 1176.570312 750.433594 L 1176.566406 750.433594 L 1176.574219 750.433594 C 1176.570312 750.429688 1176.570312 750.429688 1176.570312 750.429688 C 1180.347656 747.960938 1184.152344 745.496094 1187.976562 743.023438 L 1187.980469 743.023438 L 1187.976562 743.023438 L 1187.980469 743.023438 C 1199.285156 752.492188 1213.851562 758.191406 1229.75 758.191406 C 1265.695312 758.191406 1294.832031 729.050781 1294.832031 693.105469 C 1294.832031 657.160156 1265.695312 628.023438 1229.746094 628.023438 C 1193.804688 628.023438 1164.667969 657.160156 1164.667969 693.105469 C 1164.667969 698.191406 1165.25 703.140625 1166.351562 707.886719 L 1166.347656 707.886719 C 1162.503906 710.363281 1158.652344 712.855469 1154.796875 715.367188 C 1150.320312 718.28125 1145.839844 721.230469 1141.363281 724.21875 C 1067.382812 773.617188 995.144531 834.019531 973.699219 954.132812 C 964.578125 1005.234375 964.789062 1066.828125 964.929688 1126.777344 C 965.171875 1229.066406 964.617188 1323.8125 929.320312 1379.113281 C 899.941406 1425.136719 842.984375 1446.53125 781.355469 1446.53125 C 730.648438 1446.53125 680.679688 1431.882812 647.433594 1408.617188 C 575.511719 1358.300781 574.164062 1262.148438 574.617188 1149.003906 C 574.617188 1148.976562 574.617188 1148.949219 574.617188 1148.921875 L 574.617188 956.136719 C 583.722656 949.671875 589.664062 939.046875 589.664062 927.023438 L 589.664062 801.144531 L 717.875 737.039062 C 729.347656 731.304688 736.375 720.222656 737.457031 708.328125 C 767.566406 681.464844 800.523438 651.671875 821.808594 593.289062 C 842.734375 535.886719 852.042969 451.84375 852.5 369.570312 C 852.953125 288.089844 844.777344 202.453125 824.921875 157.125 C 806.519531 115.117188 777.835938 106.074219 752.550781 104.035156 C 747.960938 99.859375 741.941406 97.203125 735.257812 96.90625 L 703.605469 95.503906 C 703.195312 95.488281 702.78125 95.472656 702.367188 95.472656 Z M 702.367188 95.472656 "/></g></svg>